# xmcd
#
# Track frame offsets:
#       150
#       14614
#       33741
#       51442
#       73516
#       89424
#       112650
#       127059
#       145477
#       160219
#       177218
#       194337
#       216438
#       237044
#       254856
#       272565
#
# Disc length: 3860 seconds
#
# Revision: 1
# Processed by: cddbd v1.5.2PL0 Copyright (c) Steve Scherf et al.
# Submitted via: FreeDbEdit v0.1
#
DISCID=f60f1210
DTITLE=The Rolling Stones - A Bigger Bang
DYEAR=2005
DGENRE=A Cappella
TTITLE0=Rough Justice
TTITLE1=Let Me Down Slow
TTITLE2=It Won't Take Long
TTITLE3=Rain Fall Down
TTITLE4=Streets of Love
TTITLE5=Back of My Hand
TTITLE6=She Saw Me Coming
TTITLE7=Biggest Mistake
TTITLE8=This Place Is Empty
TTITLE9=Oh No, Not You Again
TTITLE10=Dangerous Beauty
TTITLE11=Laugh, I Nearly Died
TTITLE12=Sweet Neo Con
TTITLE13=Look What the Cat Dragged In
TTITLE14=Driving Too Fast
TTITLE15=Infamy
EXTD=
EXTT0=
EXTT1=
EXTT2=
EXTT3=
EXTT4=
EXTT5=
EXTT6=
EXTT7=
EXTT8=
EXTT9=
EXTT10=
EXTT11=
EXTT12=
EXTT13=
EXTT14=
EXTT15=
PLAYORDER=
